HIERARCHY
ROOT Hips
{
	OFFSET 0.000000 8.830580 0.000000
	CHANNELS 6 Xposition Yposition Zposition Zrotation Yrotation Xrotation 
	JOINT Spine
	{
		OFFSET 0.000000 0.010000 0.000000
		CHANNELS 3 Zrotation Yrotation Xrotation
		JOINT Spine1
		{
			OFFSET 0.000000 2.459130 0.000000
			CHANNELS 3 Zrotation Yrotation Xrotation
			JOINT Neck
			{
				OFFSET 0.000000 2.484630 0.000000
				CHANNELS 3 Zrotation Yrotation Xrotation
				JOINT Head_virtual
				{
					OFFSET 0.000000 0.000000 0.000000
					CHANNELS 3 Zrotation Yrotation Xrotation
					JOINT Head
					{
						OFFSET 0.000000 0.927525 0.000000
						CHANNELS 3 Zrotation Yrotation Xrotation
						End Site
						{
							OFFSET 0.000000 0.000000 0.000000
						}
					}
				}
				JOINT LeftUpArm_virtual
				{
					OFFSET 0.000000 0.000000 0.000000
					CHANNELS 3 Zrotation Yrotation Xrotation
					JOINT LeftUpArm
					{
						OFFSET 1.248820 0.000000 0.000000
						CHANNELS 3 Zrotation Yrotation Xrotation
						JOINT LeftForeArm
						{
							OFFSET 2.597580 0.000000 0.000000
							CHANNELS 3 Zrotation Yrotation Xrotation
							JOINT LeftHand
							{
								OFFSET 2.455420 0.000000 0.000000
								CHANNELS 3 Zrotation Yrotation Xrotation
								End Site
								{
									OFFSET 0.000000 0.000000 0.000000
								}
							}
						}
					}
				}
				JOINT RightUpArm_virtual
				{
					OFFSET -0.000000 -0.000000 -0.000000
					CHANNELS 3 Zrotation Yrotation Xrotation
					JOINT RightUpArm
					{
						OFFSET -1.248820 -0.000000 -0.000000
						CHANNELS 3 Zrotation Yrotation Xrotation
						JOINT RightForeArm
						{
							OFFSET -2.597580 -0.000000 -0.000000
							CHANNELS 3 Zrotation Yrotation Xrotation
							JOINT RightHand
							{
								OFFSET -2.455420 -0.000000 -0.000000
								CHANNELS 3 Zrotation Yrotation Xrotation
								End Site
								{
									OFFSET 0.000000 0.000000 0.000000
								}
							}
						}
					}
				}
			}
		}
	}
	JOINT LeftUpLeg
	{
		OFFSET 1.271939 0.000000 0.000000
		CHANNELS 3 Zrotation Yrotation Xrotation
		JOINT LeftLowLeg
		{
			OFFSET 0.000000 -4.342910 0.000000
			CHANNELS 3 Zrotation Yrotation Xrotation
			JOINT LeftFoot
			{
				OFFSET 0.000000 -4.487670 0.000000
				CHANNELS 3 Zrotation Yrotation Xrotation
				JOINT LeftToeBase
				{
					OFFSET 0.000000 0.000000 1.515070
					CHANNELS 3 Zrotation Yrotation Xrotation
					End Site
					{
						OFFSET 0.000000 0.000000 0.000000
					}
				}
			}
		}
	}
	JOINT RightUpLeg
	{
		OFFSET -1.271939 0.000000 0.000000
		CHANNELS 3 Zrotation Yrotation Xrotation
		JOINT RightLowLeg
		{
			OFFSET 0.000000 -4.342910 0.000000
			CHANNELS 3 Zrotation Yrotation Xrotation
			JOINT RightFoot
			{
				OFFSET 0.000000 -4.487670 0.000000
				CHANNELS 3 Zrotation Yrotation Xrotation
				JOINT RightToeBase
				{
					OFFSET 0.000000 0.000000 1.515070
					CHANNELS 3 Zrotation Yrotation Xrotation
					End Site
					{
						OFFSET 0.000000 0.000000 0.000000
					}
				}
			}
		}
	}
}
MOTION
Frames: 5
Frame Time: 0.041667
-14.571008 9.281533 56.792397 -172.871335 9.747227 177.559086 10.988910 -2.700665 -21.781125 -5.261717 4.579408 34.326203 0.000000 0.000000 0.000000 -10.898152 3.496436 -17.454657 -2.701442 7.770656 -71.920078 -27.156000 -2.960320 -8.102020 -36.416801 1.456760 37.757702 0.000000 -28.884701 0.000000 9.185960 6.853100 0.073091 30.020901 0.996103 -1.814700 41.217400 4.055250 25.186399 0.000000 26.654600 0.000000 -5.184970 -1.928680 -10.573000 11.467764 18.907426 13.090229 0.000000 0.000000 -0.085275 -7.581427 4.831225 8.592267 0.000000 0.000000 -10.758460 9.126069 11.744637 9.176900 0.000000 0.000000 5.480870 15.059250 -23.202011 9.668742 0.000000 0.000000 -11.555510 
-14.571512 9.276366 56.809918 -172.980385 10.236422 178.423396 10.903515 -2.461847 -22.174551 -5.120623 4.905604 34.045087 0.000000 0.000000 0.000000 -10.934226 3.465802 -17.452686 -2.811335 7.749147 -71.978486 -27.285000 -2.968950 -8.186640 -36.301399 1.499650 37.720001 0.000000 -28.434799 0.000000 9.002680 6.943810 0.174629 30.081100 1.000480 -1.937020 41.112099 3.997830 25.181000 0.000000 26.762800 0.000000 -5.166930 -1.882520 -10.565800 11.100149 19.490874 12.195593 0.000000 0.000000 0.012265 -7.620942 4.864065 8.482582 0.000000 0.000000 -10.740160 8.922923 12.828003 7.962723 0.000000 0.000000 6.025540 15.600101 -23.436434 9.019809 0.000000 0.000000 -11.370610 
-14.573772 9.276062 56.805377 -172.972068 10.212921 178.444039 10.885815 -2.496384 -22.205094 -5.116689 4.904793 34.079222 0.000000 0.000000 0.000000 -10.873528 3.444378 -17.378559 -2.933200 7.760080 -71.959905 -27.287600 -2.949760 -8.197670 -36.301601 1.606110 37.695000 0.000000 -28.081800 0.000000 8.812580 6.931680 0.628272 30.095699 0.977485 -1.946650 41.059799 3.917350 25.198200 0.000000 26.882401 0.000000 -5.238080 -1.899490 -10.634400 11.100058 19.512090 12.211576 0.000000 0.000000 -0.022093 -7.500095 4.863039 8.527003 0.000000 0.000000 -10.867820 8.899612 12.731090 7.935084 0.000000 0.000000 6.080390 15.630622 -23.358972 8.990959 0.000000 0.000000 -11.333240 
-14.576253 9.275650 56.801033 -172.971794 10.186215 178.467803 10.885408 -2.506798 -22.222499 -5.173277 4.875922 34.063577 0.000000 0.000000 0.000000 -10.875926 3.465599 -17.337153 -2.977517 7.796595 -71.900339 -27.273600 -2.903850 -8.141600 -36.290798 1.661010 37.583099 0.000000 -27.739599 0.000000 8.920700 7.400950 -0.774647 30.133301 0.858224 -1.875990 41.028099 3.981370 25.178400 0.000000 26.936800 0.000000 -5.266530 -1.857660 -10.625500 11.081974 19.502443 12.213283 0.000000 0.000000 -0.039175 -7.627970 4.804149 8.472935 0.000000 0.000000 -10.746270 8.913094 12.886748 7.911732 0.000000 0.000000 6.143510 15.714583 -23.499787 8.890902 0.000000 0.000000 -11.330090 
-14.578649 9.275346 56.796290 -172.975425 10.157987 178.486075 10.881098 -2.534508 -22.252030 -5.227905 4.841788 34.059606 0.000000 0.000000 0.000000 -10.847297 3.472699 -17.228166 -3.077859 7.833860 -71.941702 -27.242300 -2.800620 -8.083930 -36.315201 1.660310 37.523499 0.000000 -27.447300 0.000000 8.904870 7.578710 -1.047710 30.182699 0.863812 -1.841870 40.974998 3.910200 25.121401 0.000000 26.956699 0.000000 -5.274490 -1.883890 -10.757200 11.067720 19.517119 12.214196 0.000000 0.000000 -0.040398 -7.638279 4.761038 8.454434 0.000000 0.000000 -10.745160 8.897566 12.889978 7.900001 0.000000 0.000000 6.184220 15.765082 -23.512189 8.836927 0.000000 0.000000 -11.319170 
